<svg xmlns="http://www.w3.org/2000/svg" viewBox="0 0 68.9 56.56"><defs><style>.heart-1{fill:#fff;stroke:#3d454e;stroke-miterlimit:10;}</style></defs><g id="レイヤー_2" data-name="レイヤー 2"><g id="レイヤー_2-2" data-name="レイヤー 2"><polygon class="heart-1" points="62.22 6.68 62.22 0.51 56.05 0.51 49.88 0.51 43.7 0.51 43.7 6.68 37.53 6.68 37.53 12.85 31.36 12.85 31.36 6.67 25.19 6.67 25.19 0.5 19.02 0.5 12.85 0.5 6.67 0.5 6.67 6.67 0.5 6.67 0.5 12.85 0.5 19.02 0.5 25.19 6.67 25.19 6.67 31.36 12.85 31.36 12.85 37.54 19.02 37.54 19.02 43.71 25.19 43.71 25.19 49.88 31.36 49.88 31.36 56.06 37.54 56.06 37.54 49.89 43.7 49.89 43.7 43.72 49.88 43.72 49.88 37.54 56.05 37.54 56.05 31.37 62.22 31.37 62.22 25.2 68.39 25.2 68.39 19.02 68.39 12.85 68.39 6.68 62.22 6.68"/></g></g></svg>