<svg xmlns="http://www.w3.org/2000/svg" viewBox="0 0 67.9 55.56"><polygon points="61.72 6.18 61.72 0.01 55.55 0.01 49.38 0.01 43.2 0.01 43.2 6.18 37.03 6.18 37.03 12.35 30.86 12.35 30.86 6.17 24.69 6.17 24.69 0 18.52 0 12.35 0 6.17 0 6.17 6.17 0 6.17 0 12.35 0 18.52 0 24.69 6.17 24.69 6.17 30.86 12.35 30.86 12.35 37.04 18.52 37.04 18.52 43.21 24.69 43.21 24.69 49.38 30.86 49.38 30.86 55.56 37.04 55.56 37.04 49.39 43.2 49.39 43.2 43.22 49.38 43.22 49.38 37.04 55.55 37.04 55.55 30.87 61.72 30.87 61.72 24.7 67.89 24.7 67.89 18.52 67.89 12.35 67.89 6.18 61.72 6.18"/></svg>