<svg xmlns="http://www.w3.org/2000/svg" viewBox="0 0 148.15 160.5"><defs><style>.cls-1{fill:#3d454e;}.cls-2{fill:#c14b4a;}</style></defs><path class="cls-1" d="M18.52,135.8H43.21V142H55.56v6.17H74.07v6.17H86.42v6.18h43.21v-6.18h6.17v-6.17H142V135.8h6.17v-6.17H135.8v6.17h-6.17V142H117.29v6.17H98.77V142H80.25V135.8H61.73v-6.17H49.38v-6.17H98.77v-6.17h12.34v-6.18h6.18v-6.17h6.17V92.59h6.17V30.86h-6.17V24.69h-6.17V18.52h-6.18V12.35h-6.17V6.17H98.77V0H30.86V6.17H18.52v6.18H12.35v6.17H6.17V30.86H0V92.59H6.17v12.35h6.18v6.17h6.17v6.18H30.86v6.17H18.52v6.17H6.17v6.17H18.52Zm6.17-37V92.59H18.52V37h6.17V24.69h6.17V18.52H37V12.35H49.38V6.17H80.25v6.18H92.59v6.17h6.18v6.17h6.17V37h6.17V92.59h-6.17v6.18H98.77v6.17H92.59v6.17H86.42v6.18H43.21v-6.18H37v-6.17H30.86V98.77Z"/><polygon class="cls-2" points="92.59 43.22 92.59 37.04 86.42 37.04 80.24 37.04 74.07 37.04 74.07 43.22 67.9 43.22 67.9 49.38 61.73 49.38 61.73 43.21 55.56 43.21 55.56 37.04 49.39 37.04 43.21 37.04 37.04 37.04 37.04 43.21 30.87 43.21 30.87 49.38 30.87 55.56 30.87 61.73 37.04 61.73 37.04 67.9 43.21 67.9 43.21 74.08 49.39 74.08 49.39 80.25 55.56 80.25 55.56 86.42 61.73 86.42 61.73 92.59 67.91 92.59 67.91 86.43 74.07 86.43 74.07 80.25 80.24 80.25 80.24 74.08 86.42 74.08 86.42 67.91 92.59 67.91 92.59 61.74 98.76 61.74 98.76 55.56 98.76 49.39 98.76 43.22 92.59 43.22"/></svg>