<svg xmlns="http://www.w3.org/2000/svg" viewBox="0 0 1461.31 172.84"><defs><style>.cls-1{fill:#3d454e;}.cls-2{fill:#c14b4a;}</style></defs><g id="レイヤー_2" data-name="レイヤー 2"><g id="レイヤー_2-2" data-name="レイヤー 2"><rect class="cls-1" x="1431.92" y="123.75" width="5.88" height="5.88"/><rect class="cls-1" x="1426.04" y="123.75" width="5.88" height="5.88"/><rect class="cls-1" x="1420.16" y="123.75" width="5.88" height="5.88"/><rect class="cls-1" x="1414.28" y="123.75" width="5.88" height="5.88"/><rect class="cls-1" x="1408.4" y="123.75" width="5.88" height="5.88"/><rect class="cls-1" x="1437.8" y="117.87" width="5.88" height="5.88"/><rect class="cls-1" x="1431.92" y="117.87" width="5.88" height="5.88"/><rect class="cls-1" x="1426.04" y="117.87" width="5.88" height="5.88"/><rect class="cls-1" x="1414.28" y="117.87" width="5.88" height="5.88"/><rect class="cls-1" x="1408.4" y="117.87" width="5.88" height="5.88"/><rect class="cls-1" x="1402.52" y="117.87" width="5.88" height="5.88"/><rect class="cls-1" x="1396.65" y="117.87" width="5.88" height="5.88"/><rect class="cls-1" x="1443.68" y="111.99" width="5.88" height="5.88"/><rect class="cls-1" x="1443.68" y="117.87" width="5.88" height="5.88"/><rect class="cls-1" x="1437.8" y="111.99" width="5.88" height="5.88"/><rect class="cls-1" x="1431.92" y="111.99" width="5.88" height="5.88"/><rect class="cls-1" x="1408.4" y="111.99" width="5.88" height="5.88"/><rect class="cls-1" x="1402.52" y="111.99" width="5.88" height="5.88"/><rect class="cls-1" x="1396.65" y="111.99" width="5.88" height="5.88"/><rect class="cls-1" x="1449.56" y="106.12" width="5.88" height="5.88"/><rect class="cls-1" x="1443.68" y="106.12" width="5.88" height="5.88"/><rect class="cls-1" x="1437.8" y="106.12" width="5.88" height="5.88"/><rect class="cls-1" x="1402.52" y="106.12" width="5.88" height="5.88"/><rect class="cls-1" x="1396.65" y="106.12" width="5.88" height="5.88"/><rect class="cls-1" x="1390.77" y="106.12" width="5.88" height="5.88"/><rect class="cls-1" x="1449.56" y="100.24" width="5.88" height="5.88"/><rect class="cls-1" x="1443.68" y="100.24" width="5.88" height="5.88"/><rect class="cls-1" x="1437.8" y="100.24" width="5.88" height="5.88"/><rect class="cls-1" x="1402.52" y="100.24" width="5.88" height="5.88"/><rect class="cls-1" x="1396.65" y="100.24" width="5.88" height="5.88"/><rect class="cls-1" x="1390.77" y="100.24" width="5.88" height="5.88"/><rect class="cls-1" x="1455.44" y="94.36" width="5.88" height="5.88"/><rect class="cls-1" x="1449.56" y="94.36" width="5.88" height="5.88"/><rect class="cls-1" x="1443.68" y="94.36" width="5.88" height="5.88"/><rect class="cls-1" x="1396.65" y="94.36" width="5.88" height="5.88"/><rect class="cls-1" x="1390.77" y="94.36" width="5.88" height="5.88"/><rect class="cls-1" x="1384.89" y="94.36" width="5.88" height="5.88"/><rect class="cls-1" x="1455.44" y="88.48" width="5.88" height="5.88"/><rect class="cls-1" x="1449.56" y="88.48" width="5.88" height="5.88"/><rect class="cls-1" x="1443.68" y="88.48" width="5.88" height="5.88"/><rect class="cls-1" x="1396.65" y="88.48" width="5.88" height="5.88"/><rect class="cls-1" x="1390.77" y="88.48" width="5.88" height="5.88"/><rect class="cls-1" x="1384.89" y="88.48" width="5.88" height="5.88"/><rect class="cls-1" x="1455.44" y="82.6" width="5.88" height="5.88"/><rect class="cls-1" x="1449.56" y="82.6" width="5.88" height="5.88"/><rect class="cls-1" x="1443.68" y="82.6" width="5.88" height="5.88"/><rect class="cls-1" x="1396.65" y="82.6" width="5.88" height="5.88"/><rect class="cls-1" x="1390.77" y="82.6" width="5.88" height="5.88"/><rect class="cls-1" x="1384.89" y="82.6" width="5.88" height="5.88"/><rect class="cls-1" x="1455.44" y="76.72" width="5.88" height="5.88"/><rect class="cls-1" x="1449.56" y="76.72" width="5.88" height="5.88"/><rect class="cls-1" x="1443.68" y="76.72" width="5.88" height="5.88"/><rect class="cls-1" x="1396.65" y="76.72" width="5.88" height="5.88"/><rect class="cls-1" x="1390.77" y="76.72" width="5.88" height="5.88"/><rect class="cls-1" x="1384.89" y="76.72" width="5.88" height="5.88"/><rect class="cls-1" x="1455.44" y="70.84" width="5.88" height="5.88"/><rect class="cls-1" x="1449.56" y="70.84" width="5.88" height="5.88"/><rect class="cls-1" x="1443.68" y="70.84" width="5.88" height="5.88"/><rect class="cls-1" x="1396.65" y="70.84" width="5.88" height="5.88"/><rect class="cls-1" x="1390.77" y="70.84" width="5.88" height="5.88"/><rect class="cls-1" x="1384.89" y="70.84" width="5.88" height="5.88"/><rect class="cls-1" x="1455.44" y="64.96" width="5.88" height="5.88"/><rect class="cls-1" x="1449.56" y="64.96" width="5.88" height="5.88"/><rect class="cls-1" x="1443.68" y="64.96" width="5.88" height="5.88"/><rect class="cls-1" x="1396.65" y="64.96" width="5.88" height="5.88"/><rect class="cls-1" x="1390.77" y="64.96" width="5.88" height="5.88"/><rect class="cls-1" x="1384.89" y="64.96" width="5.88" height="5.88"/><rect class="cls-1" x="1455.44" y="59.08" width="5.88" height="5.88"/><rect class="cls-1" x="1449.56" y="59.08" width="5.88" height="5.88"/><rect class="cls-1" x="1443.68" y="59.08" width="5.88" height="5.88"/><rect class="cls-1" x="1396.65" y="59.08" width="5.88" height="5.88"/><rect class="cls-1" x="1390.77" y="59.08" width="5.88" height="5.88"/><rect class="cls-1" x="1384.89" y="59.08" width="5.88" height="5.88"/><rect class="cls-1" x="1455.44" y="53.2" width="5.88" height="5.88"/><rect class="cls-1" x="1449.56" y="53.2" width="5.88" height="5.88"/><rect class="cls-1" x="1443.68" y="53.2" width="5.88" height="5.88"/><rect class="cls-1" x="1396.65" y="53.2" width="5.88" height="5.88"/><rect class="cls-1" x="1390.77" y="53.2" width="5.88" height="5.88"/><rect class="cls-1" x="1384.89" y="53.2" width="5.88" height="5.88"/><rect class="cls-1" x="1455.44" y="47.33" width="5.88" height="5.88"/><rect class="cls-1" x="1455.44" y="41.45" width="5.88" height="5.88"/><rect class="cls-1" x="1449.56" y="47.33" width="5.88" height="5.88"/><rect class="cls-1" x="1443.68" y="47.33" width="5.88" height="5.88"/><rect class="cls-1" x="1396.65" y="47.33" width="5.88" height="5.88"/><rect class="cls-1" x="1390.77" y="47.33" width="5.88" height="5.88"/><rect class="cls-1" x="1384.89" y="47.33" width="5.88" height="5.88"/><rect class="cls-1" x="1449.56" y="41.45" width="5.88" height="5.88"/><rect class="cls-1" x="1443.68" y="41.45" width="5.88" height="5.88"/><rect class="cls-1" x="1396.65" y="41.45" width="5.88" height="5.88"/><rect class="cls-1" x="1390.77" y="41.45" width="5.88" height="5.88"/><rect class="cls-1" x="1384.89" y="41.45" width="5.88" height="5.88"/><rect class="cls-1" x="1449.56" y="35.57" width="5.88" height="5.88"/><rect class="cls-1" x="1443.68" y="35.57" width="5.88" height="5.88"/><rect class="cls-1" x="1396.65" y="35.57" width="5.88" height="5.88"/><rect class="cls-1" x="1390.77" y="35.57" width="5.88" height="5.88"/><rect class="cls-1" x="1449.56" y="29.69" width="5.88" height="5.88"/><rect class="cls-1" x="1443.68" y="29.69" width="5.88" height="5.88"/><rect class="cls-1" x="1437.8" y="29.69" width="5.88" height="5.88"/><rect class="cls-1" x="1402.52" y="29.69" width="5.88" height="5.88"/><rect class="cls-1" x="1396.65" y="29.69" width="5.88" height="5.88"/><rect class="cls-1" x="1390.77" y="29.69" width="5.88" height="5.88"/><rect class="cls-1" x="1449.56" y="23.81" width="5.88" height="5.88"/><rect class="cls-1" x="1443.68" y="23.81" width="5.88" height="5.88"/><rect class="cls-1" x="1437.8" y="23.81" width="5.88" height="5.88"/><rect class="cls-1" x="1402.52" y="23.81" width="5.88" height="5.88"/><rect class="cls-1" x="1396.65" y="23.81" width="5.88" height="5.88"/><rect class="cls-1" x="1443.68" y="17.93" width="5.88" height="5.88"/><rect class="cls-1" x="1437.8" y="17.93" width="5.88" height="5.88"/><rect class="cls-1" x="1431.92" y="17.93" width="5.88" height="5.88"/><rect class="cls-1" x="1408.4" y="17.93" width="5.88" height="5.88"/><rect class="cls-1" x="1402.52" y="17.93" width="5.88" height="5.88"/><rect class="cls-1" x="1396.65" y="17.93" width="5.88" height="5.88"/><rect class="cls-1" x="1437.8" y="12.05" width="5.88" height="5.88"/><rect class="cls-1" x="1431.92" y="12.05" width="5.88" height="5.88"/><rect class="cls-1" x="1426.04" y="12.05" width="5.88" height="5.88"/><rect class="cls-1" x="1420.16" y="12.05" width="5.88" height="5.88"/><rect class="cls-1" x="1414.28" y="12.05" width="5.88" height="5.88"/><rect class="cls-1" x="1408.4" y="12.05" width="5.88" height="5.88"/><rect class="cls-1" x="1402.52" y="12.05" width="5.88" height="5.88"/><rect class="cls-1" x="1426.04" y="6.17" width="5.88" height="5.88"/><rect class="cls-1" x="1420.16" y="6.17" width="5.88" height="5.88"/><rect class="cls-1" x="1414.28" y="6.17" width="5.88" height="5.88"/><rect class="cls-1" x="1356.84" y="123.75" width="5.88" height="5.88"/><rect class="cls-1" x="1350.96" y="123.75" width="5.88" height="5.88"/><rect class="cls-1" x="1345.08" y="123.75" width="5.88" height="5.88"/><rect class="cls-1" x="1339.21" y="123.75" width="5.88" height="5.88"/><rect class="cls-1" x="1333.33" y="123.75" width="5.88" height="5.88"/><rect class="cls-1" x="1327.45" y="123.75" width="5.88" height="5.88"/><rect class="cls-1" x="1321.57" y="123.75" width="5.88" height="5.88"/><rect class="cls-1" x="1315.69" y="123.75" width="5.88" height="5.88"/><rect class="cls-1" x="1309.81" y="123.75" width="5.88" height="5.88"/><rect class="cls-1" x="1303.93" y="123.75" width="5.88" height="5.88"/><rect class="cls-1" x="1298.05" y="123.75" width="5.88" height="5.88"/><rect class="cls-1" x="1356.84" y="117.87" width="5.88" height="5.88"/><rect class="cls-1" x="1362.72" y="117.87" width="5.88" height="5.88"/><rect class="cls-1" x="1350.96" y="117.87" width="5.88" height="5.88"/><rect class="cls-1" x="1345.08" y="117.87" width="5.88" height="5.88"/><rect class="cls-1" x="1339.21" y="117.87" width="5.88" height="5.88"/><rect class="cls-1" x="1333.33" y="117.87" width="5.88" height="5.88"/><rect class="cls-1" x="1327.45" y="117.87" width="5.88" height="5.88"/><rect class="cls-1" x="1321.57" y="117.87" width="5.88" height="5.88"/><rect class="cls-1" x="1315.69" y="117.87" width="5.88" height="5.88"/><rect class="cls-1" x="1309.81" y="117.87" width="5.88" height="5.88"/><rect class="cls-1" x="1303.93" y="117.87" width="5.88" height="5.88"/><rect class="cls-1" x="1298.05" y="117.87" width="5.88" height="5.88"/><rect class="cls-1" x="1362.72" y="111.99" width="5.88" height="5.88"/><rect class="cls-1" x="1356.84" y="111.99" width="5.88" height="5.88"/><rect class="cls-1" x="1315.69" y="111.99" width="5.88" height="5.88"/><rect class="cls-1" x="1309.81" y="111.99" width="5.88" height="5.88"/><rect class="cls-1" x="1303.93" y="111.99" width="5.88" height="5.88"/><rect class="cls-1" x="1368.6" y="106.12" width="5.88" height="5.88"/><rect class="cls-1" x="1362.72" y="106.12" width="5.88" height="5.88"/><rect class="cls-1" x="1321.57" y="106.12" width="5.88" height="5.88"/><rect class="cls-1" x="1315.69" y="106.12" width="5.88" height="5.88"/><rect class="cls-1" x="1309.81" y="106.12" width="5.88" height="5.88"/><rect class="cls-1" x="1368.6" y="100.24" width="5.88" height="5.88"/><rect class="cls-1" x="1327.45" y="100.24" width="5.88" height="5.88"/><rect class="cls-1" x="1321.57" y="100.24" width="5.88" height="5.88"/><rect class="cls-1" x="1315.69" y="100.24" width="5.88" height="5.88"/><rect class="cls-1" x="1333.33" y="94.36" width="5.88" height="5.88"/><rect class="cls-1" x="1327.45" y="94.36" width="5.88" height="5.88"/><rect class="cls-1" x="1321.57" y="94.36" width="5.88" height="5.88"/><rect class="cls-1" x="1333.33" y="88.48" width="5.88" height="5.88"/><rect class="cls-1" x="1339.21" y="88.48" width="5.88" height="5.88"/><rect class="cls-1" x="1345.08" y="82.6" width="5.88" height="5.88"/><rect class="cls-1" x="1327.45" y="88.48" width="5.88" height="5.88"/><rect class="cls-1" x="1339.21" y="82.6" width="5.88" height="5.88"/><rect class="cls-1" x="1333.33" y="82.6" width="5.88" height="5.88"/><rect class="cls-1" x="1345.08" y="76.72" width="5.88" height="5.88"/><rect class="cls-1" x="1339.21" y="76.72" width="5.88" height="5.88"/><rect class="cls-1" x="1350.96" y="70.84" width="5.88" height="5.88"/><rect class="cls-1" x="1345.08" y="70.84" width="5.88" height="5.88"/><rect class="cls-1" x="1339.21" y="70.84" width="5.88" height="5.88"/><rect class="cls-1" x="1356.84" y="64.96" width="5.88" height="5.88"/><rect class="cls-1" x="1350.96" y="64.96" width="5.88" height="5.88"/><rect class="cls-1" x="1345.08" y="64.96" width="5.88" height="5.88"/><rect class="cls-1" x="1356.84" y="59.08" width="5.88" height="5.88"/><rect class="cls-1" x="1362.72" y="59.08" width="5.88" height="5.88"/><rect class="cls-1" x="1350.96" y="59.08" width="5.88" height="5.88"/><rect class="cls-1" x="1345.08" y="59.08" width="5.88" height="5.88"/><rect class="cls-1" x="1362.72" y="53.2" width="5.88" height="5.88"/><rect class="cls-1" x="1356.84" y="53.2" width="5.88" height="5.88"/><rect class="cls-1" x="1350.96" y="53.2" width="5.88" height="5.88"/><rect class="cls-1" x="1362.72" y="47.33" width="5.88" height="5.88"/><rect class="cls-1" x="1356.84" y="47.33" width="5.88" height="5.88"/><rect class="cls-1" x="1350.96" y="47.33" width="5.88" height="5.88"/><rect class="cls-1" x="1315.69" y="47.33" width="5.88" height="5.88"/><rect class="cls-1" x="1309.81" y="47.33" width="5.88" height="5.88"/><rect class="cls-1" x="1303.93" y="47.33" width="5.88" height="5.88"/><rect class="cls-1" x="1362.72" y="41.45" width="5.88" height="5.88"/><rect class="cls-1" x="1356.84" y="41.45" width="5.88" height="5.88"/><rect class="cls-1" x="1350.96" y="41.45" width="5.88" height="5.88"/><rect class="cls-1" x="1315.69" y="41.45" width="5.88" height="5.88"/><rect class="cls-1" x="1309.81" y="41.45" width="5.88" height="5.88"/><rect class="cls-1" x="1303.93" y="41.45" width="5.88" height="5.88"/><rect class="cls-1" x="1298.05" y="41.45" width="5.88" height="5.88"/><rect class="cls-1" x="1362.72" y="35.57" width="5.88" height="5.88"/><rect class="cls-1" x="1356.84" y="35.57" width="5.88" height="5.88"/><rect class="cls-1" x="1350.96" y="35.57" width="5.88" height="5.88"/><rect class="cls-1" x="1315.69" y="35.57" width="5.88" height="5.88"/><rect class="cls-1" x="1309.81" y="35.57" width="5.88" height="5.88"/><rect class="cls-1" x="1303.93" y="35.57" width="5.88" height="5.88"/><rect class="cls-1" x="1298.05" y="35.57" width="5.88" height="5.88"/><rect class="cls-1" x="1362.72" y="29.69" width="5.88" height="5.88"/><rect class="cls-1" x="1356.84" y="29.69" width="5.88" height="5.88"/><rect class="cls-1" x="1350.96" y="29.69" width="5.88" height="5.88"/><rect class="cls-1" x="1309.81" y="29.69" width="5.88" height="5.88"/><rect class="cls-1" x="1303.93" y="29.69" width="5.88" height="5.88"/><rect class="cls-1" x="1298.05" y="29.69" width="5.88" height="5.88"/><rect class="cls-1" x="1356.84" y="23.81" width="5.88" height="5.88"/><rect class="cls-1" x="1362.72" y="23.81" width="5.88" height="5.88"/><rect class="cls-1" x="1350.96" y="23.81" width="5.88" height="5.88"/><rect class="cls-1" x="1309.81" y="23.81" width="5.88" height="5.88"/><rect class="cls-1" x="1303.93" y="23.81" width="5.88" height="5.88"/><rect class="cls-1" x="1356.84" y="17.93" width="5.88" height="5.88"/><rect class="cls-1" x="1350.96" y="17.93" width="5.88" height="5.88"/><rect class="cls-1" x="1345.08" y="17.93" width="5.88" height="5.88"/><rect class="cls-1" x="1315.69" y="17.93" width="5.88" height="5.88"/><rect class="cls-1" x="1309.81" y="17.93" width="5.88" height="5.88"/><rect class="cls-1" x="1303.93" y="17.93" width="5.88" height="5.88"/><rect class="cls-1" x="1350.96" y="12.05" width="5.88" height="5.88"/><rect class="cls-1" x="1345.08" y="12.05" width="5.88" height="5.88"/><rect class="cls-1" x="1339.21" y="12.05" width="5.88" height="5.88"/><rect class="cls-1" x="1333.33" y="12.05" width="5.88" height="5.88"/><rect class="cls-1" x="1327.45" y="12.05" width="5.88" height="5.88"/><rect class="cls-1" x="1321.57" y="12.05" width="5.88" height="5.88"/><rect class="cls-1" x="1315.69" y="12.05" width="5.88" height="5.88"/><rect class="cls-1" x="1309.81" y="12.05" width="5.88" height="5.88"/><rect class="cls-1" x="1339.21" y="6.17" width="5.88" height="5.88"/><rect class="cls-1" x="1333.33" y="6.17" width="5.88" height="5.88"/><rect class="cls-1" x="1327.45" y="6.17" width="5.88" height="5.88"/><rect class="cls-1" x="1321.57" y="6.17" width="5.88" height="5.88"/><rect class="cls-1" x="1258.25" y="123.75" width="5.88" height="5.88"/><rect class="cls-1" x="1252.37" y="123.75" width="5.88" height="5.88"/><rect class="cls-1" x="1246.49" y="123.75" width="5.88" height="5.88"/><rect class="cls-1" x="1240.61" y="123.75" width="5.88" height="5.88"/><rect class="cls-1" x="1234.73" y="123.75" width="5.88" height="5.88"/><rect class="cls-1" x="1264.13" y="117.87" width="5.88" height="5.88"/><rect class="cls-1" x="1258.25" y="117.87" width="5.88" height="5.88"/><rect class="cls-1" x="1252.37" y="117.87" width="5.88" height="5.88"/><rect class="cls-1" x="1240.61" y="117.87" width="5.88" height="5.88"/><rect class="cls-1" x="1234.73" y="117.87" width="5.88" height="5.88"/><rect class="cls-1" x="1228.85" y="117.87" width="5.88" height="5.88"/><rect class="cls-1" x="1222.97" y="117.87" width="5.88" height="5.88"/><rect class="cls-1" x="1270.01" y="111.99" width="5.88" height="5.88"/><rect class="cls-1" x="1264.13" y="111.99" width="5.88" height="5.88"/><rect class="cls-1" x="1258.25" y="111.99" width="5.88" height="5.88"/><rect class="cls-1" x="1234.73" y="111.99" width="5.88" height="5.88"/><rect class="cls-1" x="1228.85" y="111.99" width="5.88" height="5.88"/><rect class="cls-1" x="1222.97" y="111.99" width="5.88" height="5.88"/><rect class="cls-1" x="1275.89" y="106.12" width="5.88" height="5.88"/><rect class="cls-1" x="1270.01" y="106.12" width="5.88" height="5.88"/><rect class="cls-1" x="1270.01" y="117.87" width="5.88" height="5.88"/><rect class="cls-1" x="1264.13" y="106.12" width="5.88" height="5.88"/><rect class="cls-1" x="1228.85" y="106.12" width="5.88" height="5.88"/><rect class="cls-1" x="1222.97" y="106.12" width="5.88" height="5.88"/><rect class="cls-1" x="1217.1" y="106.12" width="5.88" height="5.88"/><rect class="cls-1" x="1275.89" y="100.24" width="5.88" height="5.88"/><rect class="cls-1" x="1270.01" y="100.24" width="5.88" height="5.88"/><rect class="cls-1" x="1264.13" y="100.24" width="5.88" height="5.88"/><rect class="cls-1" x="1228.85" y="100.24" width="5.88" height="5.88"/><rect class="cls-1" x="1222.97" y="100.24" width="5.88" height="5.88"/><rect class="cls-1" x="1217.1" y="100.24" width="5.88" height="5.88"/><rect class="cls-1" x="1281.76" y="94.36" width="5.88" height="5.88"/><rect class="cls-1" x="1275.89" y="94.36" width="5.88" height="5.88"/><rect class="cls-1" x="1270.01" y="94.36" width="5.88" height="5.88"/><rect class="cls-1" x="1222.97" y="94.36" width="5.88" height="5.88"/><rect class="cls-1" x="1217.1" y="94.36" width="5.88" height="5.88"/><rect class="cls-1" x="1211.22" y="94.36" width="5.88" height="5.88"/><rect class="cls-1" x="1281.76" y="88.48" width="5.88" height="5.88"/><rect class="cls-1" x="1275.89" y="88.48" width="5.88" height="5.88"/><rect class="cls-1" x="1270.01" y="88.48" width="5.88" height="5.88"/><rect class="cls-1" x="1222.97" y="88.48" width="5.88" height="5.88"/><rect class="cls-1" x="1217.1" y="88.48" width="5.88" height="5.88"/><rect class="cls-1" x="1211.22" y="88.48" width="5.88" height="5.88"/><rect class="cls-1" x="1281.76" y="82.6" width="5.88" height="5.88"/><rect class="cls-1" x="1275.89" y="82.6" width="5.88" height="5.88"/><rect class="cls-1" x="1270.01" y="82.6" width="5.88" height="5.88"/><rect class="cls-1" x="1222.97" y="82.6" width="5.88" height="5.88"/><rect class="cls-1" x="1217.1" y="82.6" width="5.88" height="5.88"/><rect class="cls-1" x="1211.22" y="82.6" width="5.88" height="5.88"/><rect class="cls-1" x="1281.76" y="76.72" width="5.88" height="5.88"/><rect class="cls-1" x="1275.89" y="76.72" width="5.88" height="5.88"/><rect class="cls-1" x="1270.01" y="76.72" width="5.88" height="5.88"/><rect class="cls-1" x="1222.97" y="76.72" width="5.88" height="5.88"/><rect class="cls-1" x="1217.1" y="76.72" width="5.88" height="5.88"/><rect class="cls-1" x="1211.22" y="76.72" width="5.88" height="5.88"/><rect class="cls-1" x="1281.76" y="70.84" width="5.88" height="5.88"/><rect class="cls-1" x="1275.89" y="70.84" width="5.88" height="5.88"/><rect class="cls-1" x="1270.01" y="70.84" width="5.88" height="5.88"/><rect class="cls-1" x="1222.97" y="70.84" width="5.88" height="5.88"/><rect class="cls-1" x="1217.1" y="70.84" width="5.88" height="5.88"/><rect class="cls-1" x="1211.22" y="70.84" width="5.88" height="5.88"/><rect class="cls-1" x="1281.76" y="64.96" width="5.88" height="5.88"/><rect class="cls-1" x="1275.89" y="64.96" width="5.88" height="5.88"/><rect class="cls-1" x="1270.01" y="64.96" width="5.88" height="5.88"/><rect class="cls-1" x="1222.97" y="64.96" width="5.88" height="5.88"/><rect class="cls-1" x="1217.1" y="64.96" width="5.88" height="5.88"/><rect class="cls-1" x="1211.22" y="64.96" width="5.88" height="5.88"/><rect class="cls-1" x="1281.76" y="59.08" width="5.88" height="5.88"/><rect class="cls-1" x="1275.89" y="59.08" width="5.88" height="5.88"/><rect class="cls-1" x="1270.01" y="59.08" width="5.88" height="5.88"/><rect class="cls-1" x="1222.97" y="59.08" width="5.88" height="5.88"/><rect class="cls-1" x="1217.1" y="59.08" width="5.88" height="5.88"/><rect class="cls-1" x="1211.22" y="59.08" width="5.88" height="5.88"/><rect class="cls-1" x="1281.76" y="53.2" width="5.88" height="5.88"/><rect class="cls-1" x="1275.89" y="53.2" width="5.88" height="5.88"/><rect class="cls-1" x="1270.01" y="53.2" width="5.88" height="5.88"/><rect class="cls-1" x="1222.97" y="53.2" width="5.88" height="5.88"/><rect class="cls-1" x="1217.1" y="53.2" width="5.88" height="5.88"/><rect class="cls-1" x="1211.22" y="53.2" width="5.88" height="5.88"/><rect class="cls-1" x="1281.76" y="47.33" width="5.88" height="5.88"/><rect class="cls-1" x="1281.76" y="41.45" width="5.88" height="5.88"/><rect class="cls-1" x="1275.89" y="47.33" width="5.88" height="5.88"/><rect class="cls-1" x="1270.01" y="47.33" width="5.88" height="5.88"/><rect class="cls-1" x="1222.97" y="47.33" width="5.88" height="5.88"/><rect class="cls-1" x="1217.1" y="47.33" width="5.88" height="5.88"/><rect class="cls-1" x="1211.22" y="47.33" width="5.88" height="5.88"/><rect class="cls-1" x="1275.89" y="41.45" width="5.88" height="5.88"/><rect class="cls-1" x="1270.01" y="41.45" width="5.88" height="5.88"/><rect class="cls-1" x="1222.97" y="41.45" width="5.88" height="5.88"/><rect class="cls-1" x="1217.1" y="41.45" width="5.88" height="5.88"/><rect class="cls-1" x="1211.22" y="41.45" width="5.88" height="5.88"/><rect class="cls-1" x="1275.89" y="35.57" width="5.88" height="5.88"/><rect class="cls-1" x="1270.01" y="35.57" width="5.88" height="5.88"/><rect class="cls-1" x="1222.97" y="35.57" width="5.88" height="5.88"/><rect class="cls-1" x="1217.1" y="35.57" width="5.88" height="5.88"/><rect class="cls-1" x="1275.89" y="29.69" width="5.88" height="5.88"/><rect class="cls-1" x="1270.01" y="29.69" width="5.88" height="5.88"/><rect class="cls-1" x="1264.13" y="29.69" width="5.88" height="5.88"/><rect class="cls-1" x="1228.85" y="29.69" width="5.88" height="5.88"/><rect class="cls-1" x="1222.97" y="29.69" width="5.88" height="5.88"/><rect class="cls-1" x="1217.1" y="29.69" width="5.88" height="5.88"/><rect class="cls-1" x="1275.89" y="23.81" width="5.88" height="5.88"/><rect class="cls-1" x="1270.01" y="23.81" width="5.88" height="5.88"/><rect class="cls-1" x="1264.13" y="23.81" width="5.88" height="5.88"/><rect class="cls-1" x="1228.85" y="23.81" width="5.88" height="5.88"/><rect class="cls-1" x="1222.97" y="23.81" width="5.88" height="5.88"/><rect class="cls-1" x="1270.01" y="17.93" width="5.88" height="5.88"/><rect class="cls-1" x="1264.13" y="17.93" width="5.88" height="5.88"/><rect class="cls-1" x="1258.25" y="17.93" width="5.88" height="5.88"/><rect class="cls-1" x="1234.73" y="17.93" width="5.88" height="5.88"/><rect class="cls-1" x="1228.85" y="17.93" width="5.88" height="5.88"/><rect class="cls-1" x="1222.97" y="17.93" width="5.88" height="5.88"/><rect class="cls-1" x="1264.13" y="12.05" width="5.88" height="5.88"/><rect class="cls-1" x="1258.25" y="12.05" width="5.88" height="5.88"/><rect class="cls-1" x="1252.37" y="12.05" width="5.88" height="5.88"/><rect class="cls-1" x="1246.49" y="12.05" width="5.88" height="5.88"/><rect class="cls-1" x="1240.61" y="12.05" width="5.88" height="5.88"/><rect class="cls-1" x="1234.73" y="12.05" width="5.88" height="5.88"/><rect class="cls-1" x="1228.85" y="12.05" width="5.88" height="5.88"/><rect class="cls-1" x="1252.37" y="6.17" width="5.88" height="5.88"/><rect class="cls-1" x="1246.49" y="6.17" width="5.88" height="5.88"/><rect class="cls-1" x="1240.61" y="6.17" width="5.88" height="5.88"/><rect class="cls-1" x="1183.17" y="123.75" width="5.88" height="5.88"/><rect class="cls-1" x="1177.29" y="123.75" width="5.88" height="5.88"/><rect class="cls-1" x="1171.41" y="123.75" width="5.88" height="5.88"/><rect class="cls-1" x="1165.53" y="123.75" width="5.88" height="5.88"/><rect class="cls-1" x="1159.65" y="123.75" width="5.88" height="5.88"/><rect class="cls-1" x="1153.78" y="123.75" width="5.88" height="5.88"/><rect class="cls-1" x="1147.9" y="123.75" width="5.88" height="5.88"/><rect class="cls-1" x="1142.02" y="123.75" width="5.88" height="5.88"/><rect class="cls-1" x="1136.14" y="123.75" width="5.88" height="5.88"/><rect class="cls-1" x="1130.26" y="123.75" width="5.88" height="5.88"/><rect class="cls-1" x="1124.38" y="123.75" width="5.88" height="5.88"/><rect class="cls-1" x="1183.17" y="117.87" width="5.88" height="5.88"/><rect class="cls-1" x="1189.05" y="117.87" width="5.88" height="5.88"/><rect class="cls-1" x="1177.29" y="117.87" width="5.88" height="5.88"/><rect class="cls-1" x="1171.41" y="117.87" width="5.88" height="5.88"/><rect class="cls-1" x="1165.53" y="117.87" width="5.88" height="5.88"/><rect class="cls-1" x="1159.65" y="117.87" width="5.88" height="5.88"/><rect class="cls-1" x="1153.78" y="117.87" width="5.88" height="5.88"/><rect class="cls-1" x="1147.9" y="117.87" width="5.88" height="5.88"/><rect class="cls-1" x="1142.02" y="117.87" width="5.88" height="5.88"/><rect class="cls-1" x="1136.14" y="117.87" width="5.88" height="5.88"/><rect class="cls-1" x="1130.26" y="117.87" width="5.88" height="5.88"/><rect class="cls-1" x="1124.38" y="117.87" width="5.88" height="5.88"/><rect class="cls-1" x="1189.05" y="111.99" width="5.88" height="5.88"/><rect class="cls-1" x="1183.17" y="111.99" width="5.88" height="5.88"/><rect class="cls-1" x="1142.02" y="111.99" width="5.88" height="5.88"/><rect class="cls-1" x="1136.14" y="111.99" width="5.88" height="5.88"/><rect class="cls-1" x="1130.26" y="111.99" width="5.88" height="5.88"/><rect class="cls-1" x="1194.93" y="106.12" width="5.88" height="5.88"/><rect class="cls-1" x="1189.05" y="106.12" width="5.88" height="5.88"/><rect class="cls-1" x="1147.9" y="106.12" width="5.88" height="5.88"/><rect class="cls-1" x="1142.02" y="106.12" width="5.88" height="5.88"/><rect class="cls-1" x="1136.14" y="106.12" width="5.88" height="5.88"/><rect class="cls-1" x="1194.93" y="100.24" width="5.88" height="5.88"/><rect class="cls-1" x="1153.78" y="100.24" width="5.88" height="5.88"/><rect class="cls-1" x="1147.9" y="100.24" width="5.88" height="5.88"/><rect class="cls-1" x="1142.02" y="100.24" width="5.88" height="5.88"/><rect class="cls-1" x="1159.65" y="94.36" width="5.88" height="5.88"/><rect class="cls-1" x="1153.78" y="94.36" width="5.88" height="5.88"/><rect class="cls-1" x="1147.9" y="94.36" width="5.88" height="5.88"/><rect class="cls-1" x="1159.65" y="88.48" width="5.88" height="5.88"/><rect class="cls-1" x="1165.53" y="88.48" width="5.88" height="5.88"/><rect class="cls-1" x="1171.41" y="82.6" width="5.88" height="5.88"/><rect class="cls-1" x="1153.78" y="88.48" width="5.88" height="5.88"/><rect class="cls-1" x="1165.53" y="82.6" width="5.88" height="5.88"/><rect class="cls-1" x="1159.65" y="82.6" width="5.88" height="5.88"/><rect class="cls-1" x="1171.41" y="76.72" width="5.88" height="5.88"/><rect class="cls-1" x="1165.53" y="76.72" width="5.88" height="5.88"/><rect class="cls-1" x="1177.29" y="70.84" width="5.88" height="5.88"/><rect class="cls-1" x="1171.41" y="70.84" width="5.88" height="5.88"/><rect class="cls-1" x="1165.53" y="70.84" width="5.88" height="5.88"/><rect class="cls-1" x="1183.17" y="64.96" width="5.88" height="5.88"/><rect class="cls-1" x="1177.29" y="64.96" width="5.88" height="5.88"/><rect class="cls-1" x="1171.41" y="64.96" width="5.88" height="5.88"/><rect class="cls-1" x="1183.17" y="59.08" width="5.88" height="5.88"/><rect class="cls-1" x="1189.05" y="59.08" width="5.88" height="5.88"/><rect class="cls-1" x="1177.29" y="59.08" width="5.88" height="5.88"/><rect class="cls-1" x="1171.41" y="59.08" width="5.88" height="5.88"/><rect class="cls-1" x="1189.05" y="53.2" width="5.88" height="5.88"/><rect class="cls-1" x="1183.17" y="53.2" width="5.88" height="5.88"/><rect class="cls-1" x="1177.29" y="53.2" width="5.88" height="5.88"/><rect class="cls-1" x="1189.05" y="47.33" width="5.88" height="5.88"/><rect class="cls-1" x="1183.17" y="47.33" width="5.88" height="5.88"/><rect class="cls-1" x="1177.29" y="47.33" width="5.88" height="5.88"/><rect class="cls-1" x="1142.02" y="47.33" width="5.88" height="5.88"/><rect class="cls-1" x="1136.14" y="47.33" width="5.88" height="5.88"/><rect class="cls-1" x="1130.26" y="47.33" width="5.88" height="5.88"/><rect class="cls-1" x="1189.05" y="41.45" width="5.88" height="5.88"/><rect class="cls-1" x="1183.17" y="41.45" width="5.88" height="5.88"/><rect class="cls-1" x="1177.29" y="41.45" width="5.88" height="5.88"/><rect class="cls-1" x="1142.02" y="41.45" width="5.88" height="5.88"/><rect class="cls-1" x="1136.14" y="41.45" width="5.88" height="5.88"/><rect class="cls-1" x="1130.26" y="41.45" width="5.88" height="5.88"/><rect class="cls-1" x="1124.38" y="41.45" width="5.88" height="5.88"/><rect class="cls-1" x="1189.05" y="35.57" width="5.88" height="5.88"/><rect class="cls-1" x="1183.17" y="35.57" width="5.88" height="5.88"/><rect class="cls-1" x="1177.29" y="35.57" width="5.88" height="5.88"/><rect class="cls-1" x="1142.02" y="35.57" width="5.88" height="5.88"/><rect class="cls-1" x="1136.14" y="35.57" width="5.88" height="5.88"/><rect class="cls-1" x="1130.26" y="35.57" width="5.88" height="5.88"/><rect class="cls-1" x="1124.38" y="35.57" width="5.88" height="5.88"/><rect class="cls-1" x="1189.05" y="29.69" width="5.88" height="5.88"/><rect class="cls-1" x="1183.17" y="29.69" width="5.88" height="5.88"/><rect class="cls-1" x="1177.29" y="29.69" width="5.88" height="5.88"/><rect class="cls-1" x="1136.14" y="29.69" width="5.88" height="5.88"/><rect class="cls-1" x="1130.26" y="29.69" width="5.88" height="5.88"/><rect class="cls-1" x="1124.38" y="29.69" width="5.88" height="5.88"/><rect class="cls-1" x="1183.17" y="23.81" width="5.88" height="5.88"/><rect class="cls-1" x="1189.05" y="23.81" width="5.88" height="5.88"/><rect class="cls-1" x="1177.29" y="23.81" width="5.88" height="5.88"/><rect class="cls-1" x="1136.14" y="23.81" width="5.88" height="5.88"/><rect class="cls-1" x="1130.26" y="23.81" width="5.88" height="5.88"/><rect class="cls-1" x="1183.17" y="17.93" width="5.88" height="5.88"/><rect class="cls-1" x="1177.29" y="17.93" width="5.88" height="5.88"/><rect class="cls-1" x="1171.41" y="17.93" width="5.88" height="5.88"/><rect class="cls-1" x="1142.02" y="17.93" width="5.88" height="5.88"/><rect class="cls-1" x="1136.14" y="17.93" width="5.88" height="5.88"/><rect class="cls-1" x="1130.26" y="17.93" width="5.88" height="5.88"/><rect class="cls-1" x="1177.29" y="12.05" width="5.88" height="5.88"/><rect class="cls-1" x="1171.41" y="12.05" width="5.88" height="5.88"/><rect class="cls-1" x="1165.53" y="12.05" width="5.88" height="5.88"/><rect class="cls-1" x="1159.65" y="12.05" width="5.88" height="5.88"/><rect class="cls-1" x="1153.78" y="12.05" width="5.88" height="5.88"/><rect class="cls-1" x="1147.9" y="12.05" width="5.88" height="5.88"/><rect class="cls-1" x="1142.02" y="12.05" width="5.88" height="5.88"/><rect class="cls-1" x="1136.14" y="12.05" width="5.88" height="5.88"/><rect class="cls-1" x="1165.53" y="6.17" width="5.88" height="5.88"/><rect class="cls-1" x="1159.65" y="6.17" width="5.88" height="5.88"/><rect class="cls-1" x="1153.78" y="6.17" width="5.88" height="5.88"/><rect class="cls-1" x="1147.9" y="6.17" width="5.88" height="5.88"/><path class="cls-1" d="M685.82,123.46v-6.17h-6.17v-6.18h-6.18v-6.17H667.3V98.77h-6.17V92.59H655V80.25h-6.17V67.9h12.35V61.73h6.17V55.56h6.17V24.69H667.3V12.35H655V6.17H580.88v6.18h6.17v6.17h6.17v98.77h-6.17v6.17h-6.17v6.17h49.38v-6.17H611.74V67.9h18.52V80.25h6.18V92.59h6.17v6.18h6.17v6.17H655v6.17h6.18v6.18h6.17v6.17h6.17v6.17h24.69v-6.17H685.82ZM642.61,61.73H611.74V12.35h30.87v6.17h6.17v6.17H655V55.56h-6.17v6.17Z"/><polygon class="cls-1" points="895.7 117.28 895.7 111.11 895.7 104.94 895.7 98.77 895.7 92.59 895.7 86.42 895.7 80.25 895.7 74.08 895.7 67.9 895.7 61.73 895.7 55.56 889.52 55.56 883.35 55.56 877.18 55.56 871.01 55.56 871.01 61.73 877.18 61.73 877.18 67.9 877.18 74.08 877.18 80.25 877.18 86.42 877.18 92.59 877.18 98.77 877.18 104.94 877.18 111.11 877.18 117.28 877.18 123.46 871.01 123.46 864.83 123.46 864.83 129.63 871.01 129.63 877.18 129.63 883.35 129.63 889.52 129.63 895.7 129.63 901.87 129.63 901.87 123.46 895.7 123.46 895.7 117.28"/><path class="cls-1" d="M976,67.9h-6.18V61.73H963.6V55.56H932.73v6.17H920.39V67.9h-6.17V80.25H908v24.69h6.18v12.35h6.17v6.17h12.34v6.17H963.6v-6.17H976v-6.17h6.17v-6.18H969.77v6.18H938.91v-6.18h-6.18v-6.17h-6.17V92.59H976V86.42h6.17V74.07H976Zm-18.52,6.17v6.18H926.56V74.07h6.17V67.9h6.18V61.73h12.34V67.9h6.18Z"/><polygon class="cls-1" points="1099.4 61.73 1093.23 61.73 1093.23 67.9 1099.4 67.9 1099.4 74.08 1093.23 74.08 1093.23 80.25 1093.23 86.42 1087.06 86.42 1087.06 92.59 1087.06 98.77 1080.88 98.77 1080.88 104.94 1074.71 104.94 1074.71 98.77 1074.71 92.59 1068.54 92.59 1068.54 86.42 1068.54 80.25 1062.37 80.25 1062.37 74.08 1062.37 67.9 1068.54 67.9 1068.54 61.73 1062.37 61.73 1056.19 61.73 1050.02 61.73 1043.85 61.73 1037.67 61.73 1037.67 67.9 1043.85 67.9 1050.02 67.9 1050.02 74.08 1050.02 80.25 1043.85 80.25 1043.85 86.42 1043.85 92.59 1037.67 92.59 1037.67 98.77 1037.67 104.94 1031.5 104.94 1025.33 104.94 1025.33 98.77 1025.33 92.59 1019.15 92.59 1019.15 86.42 1019.15 80.25 1012.98 80.25 1012.98 74.08 1012.98 67.9 1019.15 67.9 1019.15 61.73 1012.98 61.73 1006.81 61.73 1000.64 61.73 994.46 61.73 988.29 61.73 988.29 67.9 994.46 67.9 994.46 74.08 994.46 80.25 1000.64 80.25 1000.64 86.42 1000.64 92.59 1006.81 92.59 1006.81 98.77 1006.81 104.94 1012.98 104.94 1012.98 111.11 1012.98 117.28 1019.15 117.28 1019.15 123.46 1019.15 129.63 1025.33 129.63 1031.5 129.63 1031.5 123.46 1031.5 117.28 1037.67 117.28 1037.67 111.11 1043.85 111.11 1043.85 104.94 1043.85 98.77 1050.02 98.77 1050.02 92.59 1050.02 86.42 1056.19 86.42 1056.19 92.59 1056.19 98.77 1056.19 104.94 1062.37 104.94 1062.37 111.11 1062.37 117.28 1068.54 117.28 1068.54 123.46 1068.54 129.63 1074.71 129.63 1080.88 129.63 1080.88 123.46 1080.88 117.28 1087.06 117.28 1087.06 111.11 1087.06 104.94 1093.23 104.94 1093.23 98.77 1093.23 92.59 1099.4 92.59 1099.4 86.42 1099.4 80.25 1105.58 80.25 1105.58 74.08 1105.58 67.9 1111.75 67.9 1111.75 61.73 1105.58 61.73 1099.4 61.73"/><polygon class="cls-1" points="846.31 61.73 840.14 61.73 833.97 61.73 827.79 61.73 827.79 67.9 833.97 67.9 840.14 67.9 840.14 74.08 833.97 74.08 833.97 80.25 833.97 86.42 827.79 86.42 827.79 92.59 827.79 98.77 821.62 98.77 821.62 104.94 815.45 104.94 815.45 98.77 809.28 98.77 809.28 92.59 809.28 86.42 809.28 80.25 803.1 80.25 803.1 74.08 803.1 67.9 803.1 61.73 796.93 61.73 790.76 61.73 784.59 61.73 778.41 61.73 778.41 67.9 784.59 67.9 784.59 74.08 784.59 80.25 790.76 80.25 790.76 86.42 790.76 92.59 796.93 92.59 796.93 98.77 796.93 104.94 803.1 104.94 803.1 111.11 803.1 117.28 809.28 117.28 809.28 123.46 809.28 129.63 815.45 129.63 821.62 129.63 821.62 123.46 821.62 117.28 827.79 117.28 827.79 111.11 833.97 111.11 833.97 104.94 833.97 98.77 840.14 98.77 840.14 92.59 840.14 86.42 846.31 86.42 846.31 80.25 846.31 74.08 852.49 74.08 852.49 67.9 858.66 67.9 858.66 61.73 852.49 61.73 846.31 61.73"/><path class="cls-1" d="M759.89,61.73H747.55V55.56H722.86v6.17H710.51V67.9h-6.17v6.17h-6.18v37h6.18v6.18h6.17v6.17h12.35v6.17h30.86v-6.17h12.35V111.11h-6.18v6.18h-37v-6.18h-6.18V92.59h43.21V86.42h6.18V67.9h-6.18ZM747.55,74.07v6.18H716.68V74.07h6.18V67.9H729V61.73h12.34V67.9h6.18Z"/><polygon class="cls-1" points="877.18 6.17 877.18 12.35 877.18 18.52 877.18 24.69 883.35 24.69 889.52 24.69 895.7 24.69 895.7 18.52 895.7 12.35 895.7 6.17 889.52 6.17 883.35 6.17 877.18 6.17"/><rect class="cls-1" y="141.98" width="6.17" height="6.17"/><path class="cls-1" d="M18.52,142H43.21v6.17H55.56v6.17H74.07v6.18H86.42v6.17h43.21V160.5h6.17v-6.18H142V142h6.17V135.8H135.8V142h-6.17v6.17H117.29v6.17H98.77v-6.17H80.25V142H61.73V135.8H49.38v-6.17H98.77v-6.17h12.34v-6.17h6.18v-6.18h6.17V98.77h6.17V37h-6.17V30.86h-6.17V24.69h-6.18V18.52h-6.17V12.35H98.77V6.17H30.86v6.18H18.52v6.17H12.35v6.17H6.17V37H0V98.77H6.17v12.34h6.18v6.18h6.17v6.17H30.86v6.17H18.52v6.17H6.17V142H18.52Zm6.17-37V98.77H18.52V43.21h6.17V30.86h6.17V24.69H37V18.52H49.38V12.35H80.25v6.17H92.59v6.17h6.18v6.17h6.17V43.21h6.17V98.77h-6.17v6.17H98.77v6.17H92.59v6.18H86.42v6.17H43.21v-6.17H37v-6.18H30.86v-6.17Z"/><polygon class="cls-1" points="376.55 129.63 382.72 129.63 388.89 129.63 395.07 129.63 401.24 129.63 407.41 129.63 407.41 123.46 401.24 123.46 395.07 123.46 395.07 117.28 395.07 111.11 395.07 104.94 395.07 98.77 395.07 92.59 395.07 86.42 395.07 80.25 395.07 74.08 395.07 67.9 395.07 61.73 395.07 55.56 388.89 55.56 382.72 55.56 376.55 55.56 370.37 55.56 370.37 61.73 376.55 61.73 376.55 67.9 376.55 74.08 376.55 80.25 376.55 86.42 376.55 92.59 376.55 98.77 376.55 104.94 376.55 111.11 376.55 117.28 376.55 123.46 370.37 123.46 364.2 123.46 364.2 129.63 370.37 129.63 376.55 129.63"/><polygon class="cls-1" points="345.68 129.63 351.86 129.63 358.03 129.63 358.03 123.46 351.86 123.46 351.86 117.28 351.86 111.11 351.86 104.94 351.86 98.77 351.86 92.59 351.86 86.42 351.86 80.25 351.86 74.08 351.86 67.9 351.86 61.73 351.86 55.56 351.86 49.38 351.86 43.21 351.86 37.04 351.86 30.86 351.86 24.69 351.86 18.52 351.86 12.35 351.86 6.17 351.86 0 345.68 0 339.51 0 333.34 0 327.16 0 320.99 0 320.99 6.17 327.16 6.17 333.34 6.17 333.34 12.35 333.34 18.52 333.34 24.69 333.34 30.86 333.34 37.04 333.34 43.21 333.34 49.38 333.34 55.56 333.34 61.73 333.34 67.9 333.34 74.08 333.34 80.25 333.34 86.42 333.34 92.59 333.34 98.77 333.34 104.94 333.34 111.11 333.34 117.28 333.34 123.46 327.16 123.46 320.99 123.46 320.99 129.63 327.16 129.63 333.34 129.63 339.51 129.63 345.68 129.63"/><path class="cls-1" d="M302.47,129.63v-6.17h6.18V111.11h6.17V98.77H321V86.42h-6.17V74.07h-6.17V67.9h-6.18V61.73H296.3V55.56h-37v6.17H246.92V67.9h-6.18V80.25h-6.17v24.69h6.17v12.35h6.18v6.17h6.17v6.17h49.38Zm-12.34-6.17h-24.7v-6.17h-6.17v-6.18h-6.17v-37h6.17V67.9h6.17V61.73H284V67.9h6.18v6.17h6.17V86.42h6.17v18.52H296.3v12.35h-6.17Z"/><polygon class="cls-1" points="209.88 129.63 216.05 129.63 222.22 129.63 228.4 129.63 234.57 129.63 234.57 123.46 228.4 123.46 222.22 123.46 222.22 117.28 222.22 111.11 222.22 104.94 222.22 98.77 222.22 92.59 222.22 86.42 222.22 80.25 222.22 74.08 222.22 67.9 222.22 61.73 222.22 55.56 216.05 55.56 209.88 55.56 203.71 55.56 197.53 55.56 191.36 55.56 191.36 61.73 197.53 61.73 197.53 67.9 203.71 67.9 203.71 74.08 203.71 80.25 203.71 86.42 203.71 92.59 203.71 98.77 203.71 104.94 203.71 111.11 197.53 111.11 197.53 117.28 191.36 117.28 191.36 123.46 185.19 123.46 179.01 123.46 179.01 117.28 172.84 117.28 172.84 111.11 172.84 104.94 172.84 98.77 172.84 92.59 172.84 86.42 172.84 80.25 172.84 74.08 172.84 67.9 172.84 61.73 172.84 55.56 166.67 55.56 160.5 55.56 154.32 55.56 148.15 55.56 141.98 55.56 141.98 61.73 148.15 61.73 154.32 61.73 154.32 67.9 154.32 74.08 154.32 80.25 154.32 86.42 154.32 92.59 154.32 98.77 154.32 104.94 154.32 111.11 154.32 117.28 160.5 117.28 160.5 123.46 166.67 123.46 166.67 129.63 172.84 129.63 179.01 129.63 185.19 129.63 191.36 129.63 197.53 129.63 197.53 123.46 203.71 123.46 209.88 123.46 209.88 129.63"/><polygon class="cls-1" points="419.76 74.08 419.76 80.25 419.76 86.42 419.76 92.59 419.76 98.77 419.76 104.94 419.76 111.11 419.76 117.28 419.76 123.46 425.93 123.46 425.93 129.63 432.1 129.63 438.28 129.63 444.45 129.63 450.62 129.63 456.8 129.63 456.8 123.46 462.97 123.46 462.97 117.28 462.97 111.11 456.8 111.11 456.8 117.28 450.62 117.28 450.62 123.46 444.45 123.46 438.28 123.46 438.28 117.28 438.28 111.11 438.28 104.94 438.28 98.77 438.28 92.59 438.28 86.42 438.28 80.25 438.28 74.08 438.28 67.9 444.45 67.9 450.62 67.9 456.8 67.9 456.8 61.73 450.62 61.73 444.45 61.73 438.28 61.73 438.28 55.56 438.28 49.38 438.28 43.21 438.28 37.04 432.1 37.04 432.1 43.21 432.1 49.38 425.93 49.38 425.93 55.56 419.76 55.56 419.76 61.73 413.58 61.73 407.41 61.73 407.41 67.9 413.58 67.9 419.76 67.9 419.76 74.08"/><polygon class="cls-1" points="561.73 55.56 555.56 55.56 549.39 55.56 543.22 55.56 537.04 55.56 530.87 55.56 530.87 61.73 537.04 61.73 543.22 61.73 543.22 67.9 543.22 74.08 537.04 74.08 537.04 80.25 537.04 86.42 530.87 86.42 530.87 92.59 530.87 98.77 524.7 98.77 524.7 104.94 524.7 111.11 518.52 111.11 512.35 111.11 512.35 104.94 512.35 98.77 506.18 98.77 506.18 92.59 506.18 86.42 506.18 80.25 500 80.25 500 74.08 500 67.9 500 61.73 506.18 61.73 512.35 61.73 512.35 55.56 506.18 55.56 500 55.56 493.83 55.56 487.66 55.56 481.49 55.56 475.31 55.56 469.14 55.56 462.97 55.56 462.97 61.73 469.14 61.73 475.31 61.73 475.31 67.9 481.49 67.9 481.49 74.08 481.49 80.25 487.66 80.25 487.66 86.42 487.66 92.59 487.66 98.77 493.83 98.77 493.83 104.94 493.83 111.11 500 111.11 500 117.28 500 123.46 506.18 123.46 506.18 129.63 506.18 135.8 506.18 141.98 500 141.98 500 148.15 500 154.32 493.83 154.32 493.83 160.5 487.66 160.5 487.66 166.67 481.49 166.67 475.31 166.67 469.14 166.67 469.14 160.5 475.31 160.5 475.31 154.32 475.31 148.15 469.14 148.15 462.97 148.15 456.8 148.15 456.8 154.32 456.8 160.5 456.8 166.67 462.97 166.67 462.97 172.84 469.14 172.84 475.31 172.84 481.49 172.84 487.66 172.84 493.83 172.84 493.83 166.67 500 166.67 500 160.5 506.18 160.5 506.18 154.32 512.35 154.32 512.35 148.15 512.35 141.98 518.52 141.98 518.52 135.8 518.52 129.63 524.7 129.63 524.7 123.46 524.7 117.28 530.87 117.28 530.87 111.11 530.87 104.94 537.04 104.94 537.04 98.77 537.04 92.59 543.22 92.59 543.22 86.42 543.22 80.25 549.39 80.25 549.39 74.08 549.39 67.9 555.56 67.9 555.56 61.73 561.73 61.73 567.91 61.73 567.91 55.56 561.73 55.56"/><polygon class="cls-1" points="388.89 24.69 395.07 24.69 395.07 18.52 395.07 12.35 395.07 6.17 388.89 6.17 382.72 6.17 376.55 6.17 376.55 12.35 376.55 18.52 376.55 24.69 382.72 24.69 388.89 24.69"/><polygon class="cls-2" points="92.59 49.39 92.59 43.22 86.42 43.22 80.24 43.22 74.07 43.22 74.07 49.39 67.9 49.39 67.9 55.56 61.73 55.56 61.73 49.38 55.56 49.38 55.56 43.21 49.39 43.21 43.21 43.21 37.04 43.21 37.04 49.38 30.87 49.38 30.87 55.56 30.87 61.73 30.87 67.9 37.04 67.9 37.04 74.08 43.21 74.08 43.21 80.25 49.39 80.25 49.39 86.42 55.56 86.42 55.56 92.59 61.73 92.59 61.73 98.77 67.91 98.77 67.91 92.6 74.07 92.6 74.07 86.43 80.24 86.43 80.24 80.25 86.42 80.25 86.42 74.08 92.59 74.08 92.59 67.91 98.76 67.91 98.76 61.74 98.76 55.56 98.76 49.39 92.59 49.39"/></g></g></svg>