<svg xmlns="http://www.w3.org/2000/svg" viewBox="0 0 1461.31 172.84"><defs><style>.cls-1{fill:#3d454e;}.cls-2{fill:#c14b4a;}</style></defs><path class="cls-1" d="M1455.44,41.45V23.81h-5.88V17.93h-5.88V12.05h-11.76V6.17h-17.64v5.88h-11.76v5.88h-5.87V29.69h-5.88V41.45h-5.88v58.79h5.88V112h5.88v11.76h11.75v5.88h29.4v-5.88h11.76V112h5.88V100.24h5.87V41.45Zm-35.28,82.3v-5.88h-5.88V112h-5.88V100.24h-5.88V35.57h5.88V23.81h5.88V17.93h17.64v5.88h5.88V35.57h5.88v64.67h-5.88V112h-5.88v5.88H1426v5.88Z"/><polygon class="cls-1" points="1368.6 106.11 1362.72 106.11 1362.72 111.99 1356.84 111.99 1356.84 117.87 1350.96 117.87 1345.08 117.87 1339.2 117.87 1333.33 117.87 1327.45 117.87 1321.57 117.87 1321.57 111.99 1327.45 111.99 1327.45 106.11 1333.33 106.11 1333.33 100.24 1339.2 100.24 1339.2 94.36 1345.08 94.36 1345.08 88.48 1350.96 88.48 1350.96 82.6 1350.96 76.72 1356.84 76.72 1356.84 70.84 1362.72 70.84 1362.72 64.96 1368.6 64.96 1368.6 59.08 1368.6 53.2 1368.6 47.33 1368.6 41.45 1368.6 35.57 1368.6 29.69 1368.6 23.81 1362.72 23.81 1362.72 17.93 1356.84 17.93 1356.84 12.05 1350.96 12.05 1345.08 12.05 1345.08 6.17 1339.2 6.17 1333.33 6.17 1327.45 6.17 1321.57 6.17 1321.57 12.05 1315.69 12.05 1309.81 12.05 1309.81 17.93 1303.93 17.93 1303.93 23.81 1303.93 29.69 1298.05 29.69 1298.05 35.57 1298.05 41.45 1298.05 47.33 1303.93 47.33 1303.93 53.2 1309.81 53.2 1315.69 53.2 1321.57 53.2 1321.57 47.33 1321.57 41.45 1321.57 35.57 1315.69 35.57 1315.69 29.69 1315.69 23.81 1321.57 23.81 1321.57 17.93 1327.45 17.93 1333.33 17.93 1339.2 17.93 1345.08 17.93 1345.08 23.81 1350.96 23.81 1350.96 29.69 1350.96 35.57 1350.96 41.45 1350.96 47.33 1350.96 53.2 1350.96 59.08 1345.08 59.08 1345.08 64.96 1345.08 70.84 1339.2 70.84 1339.2 76.72 1339.2 82.6 1333.33 82.6 1333.33 88.48 1327.45 88.48 1327.45 94.36 1321.57 94.36 1321.57 100.24 1315.69 100.24 1315.69 106.11 1309.81 106.11 1309.81 111.99 1303.93 111.99 1303.93 117.87 1298.05 117.87 1298.05 123.75 1298.05 129.63 1303.93 129.63 1309.81 129.63 1315.69 129.63 1321.57 129.63 1327.45 129.63 1333.33 129.63 1339.2 129.63 1345.08 129.63 1350.96 129.63 1356.84 129.63 1362.72 129.63 1362.72 123.75 1368.6 123.75 1368.6 117.87 1368.6 111.99 1374.48 111.99 1374.48 106.11 1374.48 100.24 1368.6 100.24 1368.6 106.11"/><path class="cls-1" d="M1281.76,35.57V23.81h-5.87V17.93H1270V12.05h-11.76V6.17h-17.64v5.88h-11.76v5.88H1223V29.69h-5.87V41.45h-5.88v58.79h5.88V112H1223v11.76h11.76v5.88h29.4v-5.88h11.76V112h5.87V100.24h5.88V41.45h-5.88Zm-35.27,88.18v-5.88h-5.88V112h-5.88V100.24h-5.88V35.57h5.88V23.81h5.88V17.93h17.64v5.88h5.88V35.57H1270v64.67h-5.88V112h-5.88v5.88h-5.88v5.88Z"/><polygon class="cls-1" points="1194.93 106.11 1189.05 106.11 1189.05 111.99 1183.17 111.99 1183.17 117.87 1177.29 117.87 1171.41 117.87 1165.53 117.87 1159.65 117.87 1153.78 117.87 1147.9 117.87 1147.9 111.99 1153.78 111.99 1153.78 106.11 1159.65 106.11 1159.65 100.24 1165.53 100.24 1165.53 94.36 1171.41 94.36 1171.41 88.48 1177.29 88.48 1177.29 82.6 1177.29 76.72 1183.17 76.72 1183.17 70.84 1189.05 70.84 1189.05 64.96 1194.93 64.96 1194.93 59.08 1194.93 53.2 1194.93 47.33 1194.93 41.45 1194.93 35.57 1194.93 29.69 1194.93 23.81 1189.05 23.81 1189.05 17.93 1183.17 17.93 1183.17 12.05 1177.29 12.05 1171.41 12.05 1171.41 6.17 1165.53 6.17 1159.65 6.17 1153.78 6.17 1147.9 6.17 1147.9 12.05 1142.02 12.05 1136.14 12.05 1136.14 17.93 1130.26 17.93 1130.26 23.81 1130.26 29.69 1124.38 29.69 1124.38 35.57 1124.38 41.45 1124.38 47.33 1130.26 47.33 1130.26 53.2 1136.14 53.2 1142.02 53.2 1147.9 53.2 1147.9 47.33 1147.9 41.45 1147.9 35.57 1142.02 35.57 1142.02 29.69 1142.02 23.81 1147.9 23.81 1147.9 17.93 1153.78 17.93 1159.65 17.93 1165.53 17.93 1171.41 17.93 1171.41 23.81 1177.29 23.81 1177.29 29.69 1177.29 35.57 1177.29 41.45 1177.29 47.33 1177.29 53.2 1177.29 59.08 1171.41 59.08 1171.41 64.96 1171.41 70.84 1165.53 70.84 1165.53 76.72 1165.53 82.6 1159.65 82.6 1159.65 88.48 1153.78 88.48 1153.78 94.36 1147.9 94.36 1147.9 100.24 1142.02 100.24 1142.02 106.11 1136.14 106.11 1136.14 111.99 1130.26 111.99 1130.26 117.87 1124.38 117.87 1124.38 123.75 1124.38 129.63 1130.26 129.63 1136.14 129.63 1142.02 129.63 1147.9 129.63 1153.78 129.63 1159.65 129.63 1165.53 129.63 1171.41 129.63 1177.29 129.63 1183.17 129.63 1189.05 129.63 1189.05 123.75 1194.93 123.75 1194.93 117.87 1194.93 111.99 1200.81 111.99 1200.81 106.11 1200.81 100.24 1194.93 100.24 1194.93 106.11"/><path class="cls-1" d="M685.82,123.46v-6.17h-6.17v-6.18h-6.18v-6.17H667.3V98.77h-6.17V92.59H655V80.25h-6.17V67.9h12.35V61.73h6.17V55.56h6.17V24.69H667.3V12.35H655V6.17H580.88v6.18h6.17v6.17h6.17v98.77h-6.17v6.17h-6.17v6.17h49.38v-6.17H611.74V67.9h18.52V80.25h6.18V92.59h6.17v6.18h6.17v6.17H655v6.17h6.18v6.18h6.17v6.17h6.17v6.17h24.69v-6.17H685.82ZM642.61,61.73H611.74V12.35h30.87v6.17h6.17v6.17H655V55.56h-6.17v6.17Z"/><polygon class="cls-1" points="895.7 117.28 895.7 111.11 895.7 104.94 895.7 98.77 895.7 92.59 895.7 86.42 895.7 80.25 895.7 74.08 895.7 67.9 895.7 61.73 895.7 55.56 889.52 55.56 883.35 55.56 877.18 55.56 871.01 55.56 871.01 61.73 877.18 61.73 877.18 67.9 877.18 74.08 877.18 80.25 877.18 86.42 877.18 92.59 877.18 98.77 877.18 104.94 877.18 111.11 877.18 117.28 877.18 123.46 871.01 123.46 864.83 123.46 864.83 129.63 871.01 129.63 877.18 129.63 883.35 129.63 889.52 129.63 895.7 129.63 901.87 129.63 901.87 123.46 895.7 123.46 895.7 117.28"/><path class="cls-1" d="M976,67.9h-6.18V61.73H963.6V55.56H932.73v6.17H920.39V67.9h-6.17V80.25H908v24.69h6.18v12.35h6.17v6.17h12.34v6.17H963.6v-6.17H976v-6.17h6.17v-6.18H969.77v6.18H938.91v-6.18h-6.18v-6.17h-6.17V92.59H976V86.42h6.17V74.07H976Zm-18.52,6.17v6.18H926.56V74.07h6.17V67.9h6.18V61.73h12.34V67.9h6.18Z"/><polygon class="cls-1" points="1099.4 61.73 1093.23 61.73 1093.23 67.9 1099.4 67.9 1099.4 74.08 1093.23 74.08 1093.23 80.25 1093.23 86.42 1087.06 86.42 1087.06 92.59 1087.06 98.77 1080.88 98.77 1080.88 104.94 1074.71 104.94 1074.71 98.77 1074.71 92.59 1068.54 92.59 1068.54 86.42 1068.54 80.25 1062.37 80.25 1062.37 74.08 1062.37 67.9 1068.54 67.9 1068.54 61.73 1062.37 61.73 1056.19 61.73 1050.02 61.73 1043.85 61.73 1037.67 61.73 1037.67 67.9 1043.85 67.9 1050.02 67.9 1050.02 74.08 1050.02 80.25 1043.85 80.25 1043.85 86.42 1043.85 92.59 1037.67 92.59 1037.67 98.77 1037.67 104.94 1031.5 104.94 1025.33 104.94 1025.33 98.77 1025.33 92.59 1019.15 92.59 1019.15 86.42 1019.15 80.25 1012.98 80.25 1012.98 74.08 1012.98 67.9 1019.15 67.9 1019.15 61.73 1012.98 61.73 1006.81 61.73 1000.64 61.73 994.46 61.73 988.29 61.73 988.29 67.9 994.46 67.9 994.46 74.08 994.46 80.25 1000.64 80.25 1000.64 86.42 1000.64 92.59 1006.81 92.59 1006.81 98.77 1006.81 104.94 1012.98 104.94 1012.98 111.11 1012.98 117.28 1019.15 117.28 1019.15 123.46 1019.15 129.63 1025.33 129.63 1031.5 129.63 1031.5 123.46 1031.5 117.28 1037.67 117.28 1037.67 111.11 1043.85 111.11 1043.85 104.94 1043.85 98.77 1050.02 98.77 1050.02 92.59 1050.02 86.42 1056.19 86.42 1056.19 92.59 1056.19 98.77 1056.19 104.94 1062.37 104.94 1062.37 111.11 1062.37 117.28 1068.54 117.28 1068.54 123.46 1068.54 129.63 1074.71 129.63 1080.88 129.63 1080.88 123.46 1080.88 117.28 1087.06 117.28 1087.06 111.11 1087.06 104.94 1093.23 104.94 1093.23 98.77 1093.23 92.59 1099.4 92.59 1099.4 86.42 1099.4 80.25 1105.58 80.25 1105.58 74.08 1105.58 67.9 1111.75 67.9 1111.75 61.73 1105.58 61.73 1099.4 61.73"/><polygon class="cls-1" points="846.31 61.73 840.14 61.73 833.97 61.73 827.79 61.73 827.79 67.9 833.97 67.9 840.14 67.9 840.14 74.08 833.97 74.08 833.97 80.25 833.97 86.42 827.79 86.42 827.79 92.59 827.79 98.77 821.62 98.77 821.62 104.94 815.45 104.94 815.45 98.77 809.28 98.77 809.28 92.59 809.28 86.42 809.28 80.25 803.1 80.25 803.1 74.08 803.1 67.9 803.1 61.73 796.93 61.73 790.76 61.73 784.59 61.73 778.41 61.73 778.41 67.9 784.59 67.9 784.59 74.08 784.59 80.25 790.76 80.25 790.76 86.42 790.76 92.59 796.93 92.59 796.93 98.77 796.93 104.94 803.1 104.94 803.1 111.11 803.1 117.28 809.28 117.28 809.28 123.46 809.28 129.63 815.45 129.63 821.62 129.63 821.62 123.46 821.62 117.28 827.79 117.28 827.79 111.11 833.97 111.11 833.97 104.94 833.97 98.77 840.14 98.77 840.14 92.59 840.14 86.42 846.31 86.42 846.31 80.25 846.31 74.08 852.49 74.08 852.49 67.9 858.66 67.9 858.66 61.73 852.49 61.73 846.31 61.73"/><path class="cls-1" d="M759.89,61.73H747.55V55.56H722.86v6.17H710.51V67.9h-6.17v6.17h-6.18v37h6.18v6.18h6.17v6.17h12.35v6.17h30.86v-6.17h12.35V111.11h-6.18v6.18h-37v-6.18h-6.18V92.59h43.21V86.42h6.18V67.9h-6.18ZM747.55,74.07v6.18H716.68V74.07h6.18V67.9H729V61.73h12.34V67.9h6.18Z"/><polygon class="cls-1" points="877.18 6.17 877.18 12.35 877.18 18.52 877.18 24.69 883.35 24.69 889.52 24.69 895.7 24.69 895.7 18.52 895.7 12.35 895.7 6.17 889.52 6.17 883.35 6.17 877.18 6.17"/><rect class="cls-1" y="141.98" width="6.17" height="6.17"/><path class="cls-1" d="M18.52,142H43.21v6.17H55.56v6.17H74.07v6.18H86.42v6.17h43.21V160.5h6.17v-6.18H142V142h6.17V135.8H135.8V142h-6.17v6.17H117.29v6.17H98.77v-6.17H80.25V142H61.73V135.8H49.38v-6.17H98.77v-6.17h12.34v-6.17h6.18v-6.18h6.17V98.77h6.17V37h-6.17V30.86h-6.17V24.69h-6.18V18.52h-6.17V12.35H98.77V6.17H30.86v6.18H18.52v6.17H12.35v6.17H6.17V37H0V98.77H6.17v12.34h6.18v6.18h6.17v6.17H30.86v6.17H18.52v6.17H6.17V142H18.52Zm6.17-37V98.77H18.52V43.21h6.17V30.86h6.17V24.69H37V18.52H49.38V12.35H80.25v6.17H92.59v6.17h6.18v6.17h6.17V43.21h6.17V98.77h-6.17v6.17H98.77v6.17H92.59v6.18H86.42v6.17H43.21v-6.17H37v-6.18H30.86v-6.17Z"/><polygon class="cls-1" points="376.55 129.63 382.72 129.63 388.89 129.63 395.07 129.63 401.24 129.63 407.41 129.63 407.41 123.46 401.24 123.46 395.07 123.46 395.07 117.28 395.07 111.11 395.07 104.94 395.07 98.77 395.07 92.59 395.07 86.42 395.07 80.25 395.07 74.08 395.07 67.9 395.07 61.73 395.07 55.56 388.89 55.56 382.72 55.56 376.55 55.56 370.37 55.56 370.37 61.73 376.55 61.73 376.55 67.9 376.55 74.08 376.55 80.25 376.55 86.42 376.55 92.59 376.55 98.77 376.55 104.94 376.55 111.11 376.55 117.28 376.55 123.46 370.37 123.46 364.2 123.46 364.2 129.63 370.37 129.63 376.55 129.63"/><polygon class="cls-1" points="345.68 129.63 351.86 129.63 358.03 129.63 358.03 123.46 351.86 123.46 351.86 117.28 351.86 111.11 351.86 104.94 351.86 98.77 351.86 92.59 351.86 86.42 351.86 80.25 351.86 74.08 351.86 67.9 351.86 61.73 351.86 55.56 351.86 49.38 351.86 43.21 351.86 37.04 351.86 30.86 351.86 24.69 351.86 18.52 351.86 12.35 351.86 6.17 351.86 0 345.68 0 339.51 0 333.34 0 327.16 0 320.99 0 320.99 6.17 327.16 6.17 333.34 6.17 333.34 12.35 333.34 18.52 333.34 24.69 333.34 30.86 333.34 37.04 333.34 43.21 333.34 49.38 333.34 55.56 333.34 61.73 333.34 67.9 333.34 74.08 333.34 80.25 333.34 86.42 333.34 92.59 333.34 98.77 333.34 104.94 333.34 111.11 333.34 117.28 333.34 123.46 327.16 123.46 320.99 123.46 320.99 129.63 327.16 129.63 333.34 129.63 339.51 129.63 345.68 129.63"/><polygon class="cls-1" points="209.88 129.63 216.05 129.63 222.22 129.63 228.4 129.63 234.57 129.63 234.57 123.46 228.4 123.46 222.22 123.46 222.22 117.28 222.22 111.11 222.22 104.94 222.22 98.77 222.22 92.59 222.22 86.42 222.22 80.25 222.22 74.08 222.22 67.9 222.22 61.73 222.22 55.56 216.05 55.56 209.88 55.56 203.71 55.56 197.53 55.56 191.36 55.56 191.36 61.73 197.53 61.73 197.53 67.9 203.71 67.9 203.71 74.08 203.71 80.25 203.71 86.42 203.71 92.59 203.71 98.77 203.71 104.94 203.71 111.11 197.53 111.11 197.53 117.28 191.36 117.28 191.36 123.46 185.19 123.46 179.01 123.46 179.01 117.28 172.84 117.28 172.84 111.11 172.84 104.94 172.84 98.77 172.84 92.59 172.84 86.42 172.84 80.25 172.84 74.08 172.84 67.9 172.84 61.73 172.84 55.56 166.67 55.56 160.5 55.56 154.32 55.56 148.15 55.56 141.98 55.56 141.98 61.73 148.15 61.73 154.32 61.73 154.32 67.9 154.32 74.08 154.32 80.25 154.32 86.42 154.32 92.59 154.32 98.77 154.32 104.94 154.32 111.11 154.32 117.28 160.5 117.28 160.5 123.46 166.67 123.46 166.67 129.63 172.84 129.63 179.01 129.63 185.19 129.63 191.36 129.63 197.53 129.63 197.53 123.46 203.71 123.46 209.88 123.46 209.88 129.63"/><polygon class="cls-1" points="419.76 74.08 419.76 80.25 419.76 86.42 419.76 92.59 419.76 98.77 419.76 104.94 419.76 111.11 419.76 117.28 419.76 123.46 425.93 123.46 425.93 129.63 432.1 129.63 438.28 129.63 444.45 129.63 450.62 129.63 456.8 129.63 456.8 123.46 462.97 123.46 462.97 117.28 462.97 111.11 456.8 111.11 456.8 117.28 450.62 117.28 450.62 123.46 444.45 123.46 438.28 123.46 438.28 117.28 438.28 111.11 438.28 104.94 438.28 98.77 438.28 92.59 438.28 86.42 438.28 80.25 438.28 74.08 438.28 67.9 444.45 67.9 450.62 67.9 456.8 67.9 456.8 61.73 450.62 61.73 444.45 61.73 438.28 61.73 438.28 55.56 438.28 49.38 438.28 43.21 438.28 37.04 432.1 37.04 432.1 43.21 432.1 49.38 425.93 49.38 425.93 55.56 419.76 55.56 419.76 61.73 413.58 61.73 407.41 61.73 407.41 67.9 413.58 67.9 419.76 67.9 419.76 74.08"/><polygon class="cls-1" points="561.73 55.56 555.56 55.56 549.39 55.56 543.22 55.56 537.04 55.56 530.87 55.56 530.87 61.73 537.04 61.73 543.22 61.73 543.22 67.9 543.22 74.08 537.04 74.08 537.04 80.25 537.04 86.42 530.87 86.42 530.87 92.59 530.87 98.77 524.7 98.77 524.7 104.94 524.7 111.11 518.52 111.11 512.35 111.11 512.35 104.94 512.35 98.77 506.18 98.77 506.18 92.59 506.18 86.42 506.18 80.25 500 80.25 500 74.08 500 67.9 500 61.73 506.18 61.73 512.35 61.73 512.35 55.56 506.18 55.56 500 55.56 493.83 55.56 487.66 55.56 481.49 55.56 475.31 55.56 469.14 55.56 462.97 55.56 462.97 61.73 469.14 61.73 475.31 61.73 475.31 67.9 481.49 67.9 481.49 74.08 481.49 80.25 487.66 80.25 487.66 86.42 487.66 92.59 487.66 98.77 493.83 98.77 493.83 104.94 493.83 111.11 500 111.11 500 117.28 500 123.46 506.18 123.46 506.18 129.63 506.18 135.8 506.18 141.98 500 141.98 500 148.15 500 154.32 493.83 154.32 493.83 160.5 487.66 160.5 487.66 166.67 481.49 166.67 475.31 166.67 469.14 166.67 469.14 160.5 475.31 160.5 475.31 154.32 475.31 148.15 469.14 148.15 462.97 148.15 456.8 148.15 456.8 154.32 456.8 160.5 456.8 166.67 462.97 166.67 462.97 172.84 469.14 172.84 475.31 172.84 481.49 172.84 487.66 172.84 493.83 172.84 493.83 166.67 500 166.67 500 160.5 506.18 160.5 506.18 154.32 512.35 154.32 512.35 148.15 512.35 141.98 518.52 141.98 518.52 135.8 518.52 129.63 524.7 129.63 524.7 123.46 524.7 117.28 530.87 117.28 530.87 111.11 530.87 104.94 537.04 104.94 537.04 98.77 537.04 92.59 543.22 92.59 543.22 86.42 543.22 80.25 549.39 80.25 549.39 74.08 549.39 67.9 555.56 67.9 555.56 61.73 561.73 61.73 567.91 61.73 567.91 55.56 561.73 55.56"/><polygon class="cls-1" points="388.89 24.69 395.07 24.69 395.07 18.52 395.07 12.35 395.07 6.17 388.89 6.17 382.72 6.17 376.55 6.17 376.55 12.35 376.55 18.52 376.55 24.69 382.72 24.69 388.89 24.69"/><polygon class="cls-2" points="92.59 49.39 92.59 43.22 86.42 43.22 80.24 43.22 74.07 43.22 74.07 49.39 67.9 49.39 67.9 55.56 61.73 55.56 61.73 49.38 55.56 49.38 55.56 43.21 49.39 43.21 43.21 43.21 37.04 43.21 37.04 49.38 30.87 49.38 30.87 55.56 30.87 61.73 30.87 67.9 37.04 67.9 37.04 74.08 43.21 74.08 43.21 80.25 49.39 80.25 49.39 86.42 55.56 86.42 55.56 92.59 61.73 92.59 61.73 98.77 67.91 98.77 67.91 92.6 74.07 92.6 74.07 86.43 80.24 86.43 80.24 80.25 86.42 80.25 86.42 74.08 92.59 74.08 92.59 67.91 98.76 67.91 98.76 61.74 98.76 55.56 98.76 49.39 92.59 49.39"/><path class="cls-1" d="M314.82,111.11v6.17H302.47V67.9H296.3V61.73h-6.17V55.55h-37V67.9h-6.17V80.25h18.51V67.9H284V86.42H259.26v6.17H246.92v6.17h-6.18v24.7h6.18v6.17h30.86v-6.17h12.35v6.17h24.69v-6.17H321V111.11Zm-37,6.17H259.26v-6.17h-6.17v-6.17h6.17V98.76H284v18.52Z"/></svg>